<svg width="35" height="33" viewBox="0 0 35 33" fill="none" xmlns="http://www.w3.org/2000/svg">
<path fill-rule="evenodd" clip-rule="evenodd" d="M17.0471 2.0552L17.1449 2.05482C19.4789 2.04581 21.2968 2.0388 22.7526 2.14867C24.2316 2.2603 25.432 2.49747 26.504 3.02884C28.0229 3.78167 29.2734 4.91893 30.1065 6.30515C30.6945 7.28358 30.9626 8.38186 31.0958 9.73651C31.227 11.07 31.2334 12.7361 31.2417 14.8754L31.2523 17.6286C31.2605 19.7679 31.267 21.434 31.1461 22.7685C31.0233 24.1241 30.7637 25.2244 30.1833 26.2074C29.3609 27.6 28.1192 28.7468 26.6062 29.5114C25.5383 30.051 24.3398 30.2974 22.8617 30.4205C21.4067 30.5416 19.5888 30.5486 17.2547 30.5576L17.1572 30.5579C14.8231 30.5669 13.0052 30.574 11.5493 30.4641C10.0703 30.3525 8.86996 30.1153 7.79791 29.5839C6.27904 28.8311 5.02857 27.6938 4.19544 26.3076C3.6074 25.3292 3.33934 24.2309 3.2061 22.8762C3.07494 21.5428 3.06852 19.8767 3.06028 17.7374L3.04966 14.9841C3.0414 12.8448 3.03497 11.1787 3.15583 9.84427C3.27862 8.48864 3.5382 7.38832 4.11868 6.40538C4.94109 5.01278 6.18275 3.86591 7.69577 3.10138C8.76369 2.56176 9.96217 2.31534 11.4403 2.19231C12.8952 2.0712 14.7131 2.06419 17.0471 2.0552ZM11.6229 4.04934C10.2789 4.16122 9.39617 4.37085 8.6771 4.7342C7.50573 5.32609 6.54444 6.21399 5.90774 7.29214C5.51688 7.95398 5.295 8.76462 5.18335 9.9973C5.07062 11.2419 5.07584 12.8275 5.0843 15.021L5.09458 17.6848C5.10304 19.8783 5.11004 21.4639 5.23237 22.7076C5.35352 23.9394 5.58166 24.7483 5.97761 25.4071C6.62261 26.4803 7.59072 27.3607 8.76662 27.9436C9.48847 28.3014 10.3728 28.5042 11.7176 28.6057C13.0755 28.7082 14.8055 28.7023 17.1987 28.6931C19.592 28.6839 21.322 28.6764 22.679 28.5634C24.0231 28.4515 24.9058 28.2419 25.6248 27.8786C26.7962 27.2867 27.7575 26.3988 28.3942 25.3206C28.7851 24.6588 29.0069 23.8481 29.1186 22.6155C29.2313 21.3709 29.2261 19.7852 29.2176 17.5918L29.2074 14.928C29.1989 12.7345 29.1919 11.1489 29.0696 9.90517C28.9484 8.67339 28.7203 7.86449 28.3243 7.20568C27.6793 6.13247 26.7112 5.25201 25.5353 4.66918C24.8135 4.31139 23.9292 4.10857 22.5843 4.00707C21.2264 3.90458 19.4964 3.91044 17.1032 3.91967C14.71 3.9289 12.98 3.93639 11.6229 4.04934Z" fill="#868686"/>
<path fill-rule="evenodd" clip-rule="evenodd" d="M22.9881 22.5442C22.9901 23.0591 22.5363 23.4783 21.9745 23.4805L10.9302 23.5231C10.3684 23.5253 9.91132 23.1096 9.90934 22.5947C9.90735 22.0798 10.3612 21.6606 10.923 21.6584L21.9673 21.6158C22.5291 21.6137 22.9861 22.0293 22.9881 22.5442Z" fill="#868686"/>
<path fill-rule="evenodd" clip-rule="evenodd" d="M22.9671 17.2161C22.9691 17.731 22.5153 18.1502 21.9535 18.1524L10.9092 18.195C10.3474 18.1971 9.89033 17.7815 9.88834 17.2666C9.88636 16.7516 10.3402 16.3325 10.902 16.3303L21.9463 16.2877C22.5081 16.2855 22.9651 16.7012 22.9671 17.2161Z" fill="#868686"/>
<path fill-rule="evenodd" clip-rule="evenodd" d="M17.1341 11.9114C17.1361 12.4263 16.6823 12.8455 16.1205 12.8477L10.889 12.8679C10.3271 12.87 9.8701 12.4544 9.86812 11.9394C9.86613 11.4245 10.32 11.0054 10.8818 11.0032L16.1133 10.983C16.6751 10.9808 17.1321 11.3965 17.1341 11.9114Z" fill="#868686"/>
</svg>