<svg width="48" height="48" viewBox="0 0 48 48" fill="none" xmlns="http://www.w3.org/2000/svg">
<path d="M18.6479 14.5603H19.4222C20.187 14.5593 20.9202 14.2551 21.4609 13.7143C22.0017 13.1735 22.3059 12.4404 22.3069 11.6756V11.6437H20.6194V11.6756C20.6189 11.993 20.4926 12.2972 20.2682 12.5216C20.0438 12.746 19.7396 12.8723 19.4222 12.8728H18.6479C18.3305 12.8723 18.0263 12.746 17.8019 12.5216C17.5775 12.2972 17.4512 11.993 17.4507 11.6756V8.69625C17.4514 8.37905 17.5778 8.07507 17.8022 7.85086C18.0266 7.62666 18.3307 7.5005 18.6479 7.5H19.4222C19.7396 7.5005 20.0438 7.62679 20.2682 7.8512C20.4926 8.0756 20.6189 8.37983 20.6194 8.69719H22.3069C22.3059 7.93243 22.0017 7.19927 21.4609 6.6585C20.9202 6.11773 20.187 5.81349 19.4222 5.8125H18.6479C17.883 5.81324 17.1497 6.11741 16.6089 6.65823C16.0681 7.19905 15.7639 7.93235 15.7632 8.69719V11.6766C15.7642 12.4412 16.0684 13.1743 16.6092 13.7149C17.15 14.2555 17.8832 14.5596 18.6479 14.5603Z" fill="white" stroke="white" stroke-width="0.00512"/>
<path d="M26.5756 14.5612C27.443 14.5603 28.2747 14.2152 28.8881 13.6018C29.5014 12.9885 29.8465 12.1568 29.8475 11.2894V9.08438C29.8475 8.65471 29.7628 8.22924 29.5984 7.83228C29.434 7.43532 29.193 7.07463 28.8892 6.77081C28.5853 6.46699 28.2246 6.22598 27.8277 6.06156C27.4307 5.89713 27.0053 5.8125 26.5756 5.8125C26.1459 5.8125 25.7205 5.89713 25.3235 6.06156C24.9265 6.22598 24.5658 6.46699 24.262 6.77081C23.9582 7.07463 23.7172 7.43532 23.5528 7.83228C23.3883 8.22924 23.3037 8.65471 23.3037 9.08438V11.2894C23.3045 12.1569 23.6494 12.9887 24.2628 13.6021C24.8763 14.2156 25.7081 14.5605 26.5756 14.5612ZM24.9912 9.08438C24.9912 8.66417 25.1581 8.26118 25.4553 7.96405C25.7524 7.66692 26.1554 7.5 26.5756 7.5C26.9958 7.5 27.3988 7.66692 27.6959 7.96405C27.993 8.26118 28.16 8.66417 28.16 9.08438V11.2894C28.16 11.7096 27.993 12.1126 27.6959 12.4097C27.3988 12.7068 26.9958 12.8737 26.5756 12.8737C26.1554 12.8737 25.7524 12.7068 25.4553 12.4097C25.1581 12.1126 24.9912 11.7096 24.9912 11.2894V9.08438Z" fill="white" stroke="white" stroke-width="0.00512"/>
<path d="M34.0127 14.5562L32.4067 15.0662C31.971 15.2047 31.5991 15.4944 31.3582 15.8831C31.1174 16.2717 31.0235 16.7337 31.0934 17.1856C31.1634 17.6374 31.3926 18.0494 31.7397 18.3471C32.0868 18.6447 32.5289 18.8084 32.9861 18.8087H35.5549V17.1212H32.9861C32.9319 17.1206 32.8796 17.1008 32.8386 17.0652C32.7976 17.0297 32.7706 16.9807 32.7624 16.9271C32.7542 16.8735 32.7653 16.8187 32.7937 16.7725C32.8222 16.7263 32.8661 16.6917 32.9177 16.6749L34.5236 16.1649C34.936 16.0351 35.2961 15.7768 35.5515 15.4279C35.8068 15.079 35.944 14.6576 35.943 14.2252V14.0255C35.9422 13.4858 35.7274 12.9684 35.3457 12.5869C34.964 12.2053 34.4465 11.9907 33.9067 11.9902H33.1061C32.5665 11.991 32.0493 12.2057 31.6678 12.5872C31.2862 12.9687 31.0715 13.486 31.0708 14.0255V14.2721H32.7583V14.0255C32.7585 13.9334 32.7953 13.8451 32.8604 13.7799C32.9256 13.7147 33.0139 13.678 33.1061 13.6777H33.9067C33.9991 13.6777 34.0876 13.7143 34.153 13.7795C34.2184 13.8447 34.2552 13.9332 34.2555 14.0255V14.2252C34.2556 14.2991 34.2322 14.3711 34.1885 14.4306C34.1448 14.4902 34.0832 14.5342 34.0127 14.5562Z" fill="white" stroke="white" stroke-width="0.00512"/>
<path d="M21.2974 18.4828C22.7026 18.4876 24.0688 18.9456 25.193 19.7887C26.3172 20.6318 27.1394 21.8151 27.5374 23.1628C27.6833 23.67 27.9916 24.1152 28.415 24.4302C28.8384 24.7452 29.3535 24.9126 29.8812 24.9066H29.8943C30.555 24.9067 31.2091 25.0384 31.8185 25.2939C32.4278 25.5495 32.9801 25.9238 33.4433 26.395C33.9065 26.8662 34.2712 27.4249 34.5163 28.0385C34.7613 28.6521 34.8818 29.3084 34.8706 29.9691C34.8571 30.6623 34.695 31.3445 34.3952 31.9697C34.9447 32.1079 35.4698 32.3292 35.9524 32.6259C36.3347 31.8027 36.5403 30.9085 36.5562 30.0009C36.5711 29.1163 36.4098 28.2376 36.0816 27.416C35.7534 26.5944 35.265 25.8463 34.6447 25.2154C34.0245 24.5845 33.2848 24.0834 32.4689 23.7413C31.653 23.3992 30.7772 23.2229 29.8924 23.2228H29.8756C29.7136 23.2251 29.5555 23.174 29.4255 23.0774C29.2955 22.9809 29.201 22.8441 29.1565 22.6884C28.6609 20.9872 27.6268 19.4927 26.2094 18.4293C24.7921 17.3659 23.068 16.791 21.296 16.791C19.5241 16.791 17.8 17.3659 16.3826 18.4293C14.9652 19.4927 13.9311 20.9872 13.4356 22.6884C13.3895 22.8428 13.2942 22.9779 13.1642 23.073C13.0342 23.1682 12.8766 23.2181 12.7156 23.2153H12.7006C11.8153 23.2157 10.9391 23.3923 10.1229 23.735C9.30666 24.0777 8.5669 24.5795 7.94674 25.2112C7.32659 25.8429 6.83846 26.5917 6.51086 27.4141C6.18326 28.2365 6.02274 29.1159 6.03868 30.0009C6.09868 33.6122 9.13243 36.5512 12.7971 36.5512H15.4821C15.5757 35.9627 15.7631 35.3929 16.0371 34.8637H12.7971C10.0456 34.8637 7.77024 32.6691 7.72524 29.9728C7.71404 29.3122 7.83447 28.6559 8.07951 28.0423C8.32455 27.4286 8.68929 26.8699 9.15247 26.3987C9.61565 25.9275 10.168 25.5532 10.7773 25.2977C11.3867 25.0421 12.0407 24.9105 12.7015 24.9103H12.7184C12.884 24.91 13.0492 24.8934 13.2115 24.8606C13.8084 25.496 14.1447 26.3326 14.1537 27.2044L16.0596 27.15C16.0428 25.9111 15.5931 24.7171 14.7884 23.775C14.9046 23.5874 14.9948 23.385 15.0565 23.1731C15.4529 21.8235 16.2744 20.6378 17.399 19.7927C18.5235 18.9476 19.8908 18.4882 21.2974 18.4828Z" fill="white" stroke="white" stroke-width="0.00512"/>
<path d="M33.2083 33.407C32.8256 33.69 32.5136 34.0577 32.2966 34.4814C32.0796 34.9051 31.9637 35.3732 31.9577 35.8491L30.2702 35.8013C30.2791 35.1439 30.4255 34.4957 30.7 33.8983C30.9745 33.3009 31.371 32.7675 31.864 32.3326C31.5021 31.3133 30.8263 30.435 29.9338 29.824C29.0413 29.2129 27.9781 28.9006 26.8969 28.9318C25.8157 28.9631 24.7723 29.3363 23.9166 29.9979C23.0609 30.6595 22.437 31.5753 22.1346 32.6138C22.0669 32.8438 21.9262 33.0454 21.7337 33.1882C21.5412 33.3309 21.3074 33.4071 21.0677 33.4051H21.0583C20.52 33.405 19.987 33.5122 19.4905 33.7203C18.9941 33.9285 18.544 34.2335 18.1667 34.6175C17.7894 35.0015 17.4924 35.4569 17.2931 35.957C17.0937 36.457 16.9959 36.9918 17.0055 37.5301C17.0421 39.7529 18.9021 41.5145 21.1249 41.5145H32.9608C35.1836 41.5145 37.0436 39.7529 37.0812 37.5301C37.1005 36.4736 36.7065 35.4513 35.9831 34.6811C35.2596 33.9109 34.264 33.4537 33.2083 33.407Z" fill="white" stroke="white" stroke-width="0.00512"/>
</svg>
