<svg width="30" height="39" viewBox="0 0 30 39" fill="none" xmlns="http://www.w3.org/2000/svg">
<path d="M18.3103 29.2589C20.5518 29.9793 22.531 30.4382 25.3746 31.2584C24.2822 44.2142 11.2291 39.069 18.3103 29.2589ZM29.9647 17.3573C29.8175 13.4672 29.0874 8.36422 23.2724 9.1638C20.5465 9.83151 18.5324 12.6413 17.5851 17.4891C17.0649 20.1546 17.3674 23.8959 17.9811 26.1387C18.5414 27.7192 18.3509 27.622 18.9531 27.9222C21.2841 28.415 23.5917 28.9606 25.9417 29.5169C28.3289 27.9346 30.2896 19.5343 29.9647 17.3573ZM12.0191 17.0587C12.6324 14.8157 12.9349 11.0743 12.4149 8.40916C11.4683 3.56112 9.45397 0.750849 6.72757 0.0835961C0.91257 -0.715987 0.182543 4.38688 0.0353438 8.27721C-0.289606 10.4538 1.6713 18.8547 4.0588 20.4367C6.40858 19.8804 8.71588 19.3353 11.0476 18.842C11.6491 18.5421 11.4586 18.6392 12.0191 17.0587ZM4.62511 22.1786C5.71717 35.1343 18.7702 29.9891 11.6892 20.1791C9.44776 20.8996 7.46872 21.3584 4.62511 22.1786Z" fill="white"/>
</svg>
