<svg width="24" height="25" viewBox="0 0 24 25" fill="none" xmlns="http://www.w3.org/2000/svg">
<path fill-rule="evenodd" clip-rule="evenodd" d="M9.44925 2.41556e-05H13.676C13.9465 -0.000150844 14.1821 -0.000301006 14.4046 0.0352365C15.2837 0.175611 16.0445 0.723937 16.4557 1.51355C16.5597 1.71341 16.6341 1.93701 16.7195 2.19367L16.8591 2.6123C16.8828 2.68316 16.8895 2.70322 16.8951 2.71902C17.1141 3.32416 17.6816 3.73324 18.3249 3.74955C18.3419 3.74997 18.3625 3.75005 18.4376 3.75005H22.1876C22.7054 3.75005 23.1251 4.16977 23.1251 4.68755C23.1251 5.20531 22.7054 5.62505 22.1876 5.62505H0.9375C0.419738 5.62505 0 5.20531 0 4.68755C0 4.16977 0.419738 3.75005 0.9375 3.75005H4.6876C4.76266 3.75005 4.78337 3.74997 4.80029 3.74955C5.4436 3.73324 6.01114 3.3242 6.23003 2.71905C6.23579 2.70314 6.2424 2.68351 6.26614 2.6123L6.40565 2.1937C6.49101 1.93705 6.56541 1.71341 6.66949 1.51355C7.08066 0.723937 7.84141 0.175611 8.72054 0.0352365C8.94306 -0.000301006 9.17875 -0.000150844 9.44925 2.41556e-05ZM7.82269 3.75005C7.88707 3.62377 7.94414 3.49255 7.99323 3.35685C8.00813 3.31564 8.02275 3.27177 8.04152 3.21542L8.16628 2.84115C8.28024 2.49926 8.30649 2.42954 8.33251 2.37955C8.46957 2.11634 8.72316 1.93357 9.0162 1.88677C9.07188 1.87789 9.14625 1.87505 9.50663 1.87505H13.6185C13.9789 1.87505 14.0534 1.87789 14.109 1.88677C14.402 1.93357 14.6556 2.11634 14.7927 2.37955C14.8187 2.42954 14.845 2.49925 14.9589 2.84115L15.0836 3.2152L15.132 3.35687C15.1811 3.49256 15.2381 3.62377 15.3025 3.75005H7.82269Z" fill="#B10003"/>
<path d="M3.95597 7.75017C3.92153 7.23355 3.47481 6.84267 2.95818 6.87711C2.44157 6.91155 2.05068 7.35827 2.08512 7.8749L2.66443 16.5646C2.77131 18.168 2.85763 19.4631 3.06009 20.4795C3.27059 21.5361 3.62862 22.4187 4.36811 23.1106C5.10761 23.8024 6.01204 24.101 7.08036 24.2406C8.10788 24.3751 9.40586 24.3751 11.0129 24.375H12.1115C13.7185 24.3751 15.0165 24.3751 16.0441 24.2406C17.1124 24.101 18.0169 23.8024 18.7564 23.1106C19.4959 22.4187 19.8539 21.5361 20.0644 20.4795C20.2669 19.4632 20.3531 18.168 20.46 16.5646L21.0394 7.8749C21.0737 7.35827 20.6829 6.91155 20.1662 6.87711C19.6496 6.84267 19.2029 7.23355 19.1685 7.75017L18.5935 16.3741C18.4812 18.0589 18.4012 19.2311 18.2255 20.1132C18.055 20.9687 17.8171 21.4216 17.4754 21.7414C17.1336 22.0611 16.6659 22.2684 15.8009 22.3815C14.9091 22.4981 13.7341 22.5 12.0456 22.5H11.0789C9.39036 22.5 8.21529 22.4981 7.32354 22.3815C6.45854 22.2684 5.99084 22.0611 5.64908 21.7414C5.30732 21.4216 5.06939 20.9687 4.89896 20.1132C4.72326 19.2311 4.64322 18.0589 4.53089 16.3741L3.95597 7.75017Z" fill="#B10003"/>
<path d="M8.34428 10.0047C8.85948 9.95311 9.31896 10.3291 9.37046 10.8442L9.99546 17.0942C10.047 17.6095 9.67108 18.0689 9.15583 18.1204C8.64066 18.1719 8.18125 17.796 8.12972 17.2809L7.50472 11.0309C7.45321 10.5156 7.8291 10.0562 8.34428 10.0047Z" fill="#B10003"/>
<path d="M14.7808 10.0047C15.2961 10.0562 15.672 10.5156 15.6205 11.0309L14.9955 17.2809C14.944 17.796 14.4845 18.1719 13.9693 18.1204C13.4541 18.0689 13.0782 17.6095 13.1297 17.0942L13.7547 10.8442C13.8062 10.3291 14.2657 9.95311 14.7808 10.0047Z" fill="#B10003"/>
</svg>
