<svg width="28" height="28" viewBox="0 0 28 28" fill="none" xmlns="http://www.w3.org/2000/svg">
<path d="M27.0347 17.3796H23.1726V13.5176H21.2415V22.2072H5.79314V6.75893L14.4829 6.75807V4.8279H10.6208V0.96582H8.68971V4.8279H5.79314C5.28115 4.82841 4.79028 5.03202 4.42825 5.39405C4.06622 5.75608 3.8626 6.24695 3.86209 6.75893V9.65549H0V11.5865H3.86209V17.3796H0V19.3107H3.86209V22.2072C3.86268 22.7192 4.06632 23.21 4.42833 23.572C4.79035 23.9341 5.28118 24.1377 5.79314 24.1383H8.68971V28.0004H10.6208V24.1383H16.4139V28.0004H18.3449V24.1383H21.2415C21.7534 24.1376 22.2442 23.9339 22.6062 23.5719C22.9682 23.2099 23.1719 22.7192 23.1726 22.2072V19.3107H27.0347V17.3796Z" fill="#868686"/>
<path d="M18.3447 19.3105H8.68945V9.65527H18.3447V19.3105ZM10.6205 17.3794H16.4136V11.5863H10.6205V17.3794Z" fill="#868686"/>
<path d="M28.0003 11.5862H26.0693C26.0663 9.02643 25.0481 6.57233 23.238 4.76228C21.428 2.95223 18.9739 1.93403 16.4141 1.93104V0C19.4859 0.00334794 22.431 1.22511 24.6031 3.39723C26.7752 5.56934 27.997 8.5144 28.0003 11.5862Z" fill="#868686"/>
<path d="M23.1727 11.5858H21.2417C21.2402 10.3059 20.7311 9.07884 19.826 8.17382C18.921 7.2688 17.694 6.75969 16.4141 6.75819V4.82715C18.2059 4.82932 19.9237 5.54209 21.1908 6.80911C22.4578 8.07612 23.1706 9.79395 23.1727 11.5858Z" fill="#868686"/>
</svg>
