<svg width="16" height="16" viewBox="0 0 16 16" fill="none" xmlns="http://www.w3.org/2000/svg">
<path d="M15.4483 9.93008H13.2414V7.72318H12.138V12.6887H3.31035V3.86112L8.27589 3.86062V2.75767H6.06898V0.550781H4.96553V2.75767H3.31035C3.01779 2.75797 2.73729 2.87432 2.53042 3.08119C2.32354 3.28806 2.20719 3.56856 2.2069 3.86112V5.51629H0V6.61974H2.2069V9.93008H0V11.0335H2.2069V12.6887C2.20724 12.9812 2.3236 13.2617 2.53047 13.4686C2.73733 13.6754 3.0178 13.7918 3.31035 13.7921H4.96553V15.999H6.06898V13.7921H9.37934V15.999H10.4828V13.7921H12.138C12.4305 13.7917 12.7109 13.6754 12.9178 13.4685C13.1246 13.2617 13.241 12.9812 13.2414 12.6887V11.0335H15.4483V9.93008Z" fill="#133250"/>
<path d="M10.4828 11.0348H4.96558V5.51758H10.4828V11.0348ZM6.06903 9.93136H9.37938V6.62102H6.06903V9.93136Z" fill="#133250"/>
<path d="M16.0003 6.62068H14.8969C14.8952 5.15794 14.3134 3.7556 13.279 2.72129C12.2447 1.68698 10.8424 1.10515 9.37964 1.10345V0C11.135 0.0019131 12.8179 0.700061 14.0591 1.94126C15.3003 3.18247 15.9984 4.86535 16.0003 6.62068Z" fill="#133250"/>
<path d="M13.2417 6.61987H12.1383C12.1374 5.88851 11.8465 5.18734 11.3293 4.67019C10.8122 4.15304 10.111 3.86212 9.37964 3.86126V2.75781C10.4035 2.75905 11.3852 3.16635 12.1092 3.89036C12.8332 4.61436 13.2405 5.59597 13.2417 6.61987Z" fill="#133250"/>
</svg>
