<svg width="25" height="25" viewBox="0 0 25 25" fill="none" xmlns="http://www.w3.org/2000/svg">
<path fill-rule="evenodd" clip-rule="evenodd" d="M0 12.5C0 6.60744 -1.19209e-07 3.66116 1.83059 1.83059C3.66116 -1.19209e-07 6.60744 0 12.5 0C18.3925 0 21.3389 -1.19209e-07 23.1694 1.83059C25 3.66116 25 6.60744 25 12.5C25 18.3925 25 21.3389 23.1694 23.1694C21.3389 25 18.3925 25 12.5 25C6.60744 25 3.66116 25 1.83059 23.1694C-1.19209e-07 21.3389 0 18.3925 0 12.5ZM12.5 5.3125C13.0177 5.3125 13.4375 5.73224 13.4375 6.25V12.7366L15.5871 10.5871C15.9532 10.221 16.5468 10.221 16.9129 10.5871C17.279 10.9532 17.279 11.5468 16.9129 11.9129L13.1629 15.6629C12.9871 15.8387 12.7486 15.9375 12.5 15.9375C12.2514 15.9375 12.0129 15.8387 11.8371 15.6629L8.08709 11.9129C7.72097 11.5468 7.72097 10.9532 8.08709 10.5871C8.4532 10.221 9.0468 10.221 9.41291 10.5871L11.5625 12.7366V6.25C11.5625 5.73224 11.9823 5.3125 12.5 5.3125ZM7.5 17.8125C6.98224 17.8125 6.5625 18.2323 6.5625 18.75C6.5625 19.2677 6.98224 19.6875 7.5 19.6875H17.5C18.0177 19.6875 18.4375 19.2677 18.4375 18.75C18.4375 18.2323 18.0177 17.8125 17.5 17.8125H7.5Z" fill="#35005C"/>
</svg>
