<svg width="32" height="32" viewBox="0 0 32 32" fill="none" xmlns="http://www.w3.org/2000/svg">
<g clip-path="url(#clip0_47_2347)">
<path d="M18.6051 2.02244L16.3491 13.8784L24.5231 13.9054L13.3961 29.9774L15.6531 16.9344L7.47906 16.9054L18.6051 2.02244ZM18.6061 0.0234375C18.5521 0.0234375 18.4981 0.0254375 18.4451 0.0294375C18.0921 0.0574375 17.8581 0.176437 17.5811 0.362437C17.4271 0.464437 17.2861 0.590438 17.1621 0.735438C17.1251 0.778437 17.0911 0.823438 17.0591 0.869438L5.85206 15.7014C5.41006 16.3084 5.34406 17.1084 5.68406 17.7774C6.02406 18.4464 6.71006 18.8704 7.46306 18.8764L13.2361 18.9184L11.4211 29.6124C11.2491 30.5314 11.7391 31.4474 12.6011 31.8164C12.8581 31.9264 13.1281 31.9794 13.3941 31.9794C14.0231 31.9794 14.5391 31.6854 14.9271 31.1544L26.1471 15.0824C26.5891 14.4754 26.6541 13.6744 26.3151 13.0064C25.9751 12.3374 25.2891 11.9134 24.5361 11.9084L18.7631 11.8984L20.5591 2.49644C20.5971 2.34544 20.6161 2.18844 20.6161 2.02644C20.6161 0.944438 19.7551 0.0624375 18.6771 0.0274375C18.6531 0.0264375 18.6301 0.0264375 18.6061 0.0264375V0.0234375Z" fill="white" stroke="white"/>
</g>
<defs>
<clipPath id="clip0_47_2347">
<rect width="32" height="32" fill="white"/>
</clipPath>
</defs>
</svg>
