<svg width="25" height="19" viewBox="0 0 25 19" fill="none" xmlns="http://www.w3.org/2000/svg">
<path fill-rule="evenodd" clip-rule="evenodd" d="M0.5 0.5H2V17.375H24.5V18.5H0.5V0.5ZM22.7255 4.00212C22.8018 4.04893 22.865 4.10656 22.9116 4.17171C22.9581 4.23686 22.9871 4.30825 22.9969 4.3818C23.0066 4.45536 22.9969 4.52963 22.9684 4.60038C22.9398 4.67113 22.893 4.73697 22.8305 4.79413L16.0805 10.9816C16.0142 11.0424 15.9316 11.092 15.8381 11.1274C15.7447 11.1627 15.6424 11.183 15.5378 11.1869C15.4332 11.1909 15.3288 11.1783 15.231 11.1501C15.1333 11.1219 15.0446 11.0787 14.9705 11.0233L11.09 8.11287L5.606 13.7682C5.48603 13.8827 5.31161 13.9577 5.11938 13.9777C4.92714 13.9977 4.73207 13.961 4.57516 13.8753C4.41824 13.7897 4.3117 13.6618 4.27792 13.5184C4.24413 13.3751 4.28574 13.2276 4.394 13.1068L10.394 6.91925C10.4577 6.85345 10.5396 6.79879 10.6342 6.75904C10.7288 6.71928 10.8337 6.69537 10.9418 6.68895C11.0498 6.68254 11.1585 6.69377 11.2602 6.72187C11.3619 6.74998 11.4543 6.79429 11.531 6.85175L15.4445 9.788L21.6695 4.08087C21.7319 4.02367 21.8087 3.97625 21.8956 3.94133C21.9825 3.9064 22.0777 3.88467 22.1757 3.87735C22.2738 3.87004 22.3728 3.87729 22.4672 3.8987C22.5615 3.92011 22.6493 3.95526 22.7255 4.00212Z" fill="#87888C" stroke="#868686"/>
</svg>
