<svg width="32" height="22" viewBox="0 0 32 22" fill="none" xmlns="http://www.w3.org/2000/svg">
<path fill-rule="evenodd" clip-rule="evenodd" d="M7.61909 8C8.88226 8 9.90481 6.6579 9.90481 5C9.90481 3.3421 8.88226 2 7.61909 2C6.35593 2 5.33338 3.3421 5.33338 5C5.33338 6.6579 6.35593 8 7.61909 8ZM7.61909 10C9.72386 10 11.4286 7.7625 11.4286 5C11.4286 2.2375 9.72386 0 7.61909 0C5.51433 0 3.80957 2.2375 3.80957 5C3.80957 7.7625 5.51433 10 7.61909 10Z" fill="#868686"/>
<path fill-rule="evenodd" clip-rule="evenodd" d="M1.99734 15.7886C1.62706 16.2779 1.52381 16.6725 1.52381 17V20H15.2381V17C15.2381 16.6725 15.1349 16.2779 14.7646 15.7886C14.3803 15.2809 13.7821 14.7792 13.0101 14.3364C11.4581 13.4461 9.57067 13 8.38095 13C7.19124 13 5.30389 13.4461 3.75176 14.3364C2.97979 14.7792 2.38153 15.2809 1.99734 15.7886ZM8.38095 11C5.58377 11 0 13.01 0 17V22H16.7619V17C16.7619 13.01 11.1781 11 8.38095 11Z" fill="#868686"/>
<path fill-rule="evenodd" clip-rule="evenodd" d="M24.3808 8C25.644 8 26.6665 6.6579 26.6665 5C26.6665 3.3421 25.644 2 24.3808 2C23.1177 2 22.0951 3.3421 22.0951 5C22.0951 6.6579 23.1177 8 24.3808 8ZM24.3808 10C26.4856 10 28.1903 7.7625 28.1903 5C28.1903 2.2375 26.4856 0 24.3808 0C22.2761 0 20.5713 2.2375 20.5713 5C20.5713 7.7625 22.2761 10 24.3808 10Z" fill="#868686"/>
<path fill-rule="evenodd" clip-rule="evenodd" d="M15.9998 6C16.842 6 17.5236 5.1054 17.5236 4C17.5236 2.8946 16.842 2 15.9998 2C15.1576 2 14.476 2.8946 14.476 4C14.476 5.1054 15.1576 6 15.9998 6ZM15.9998 8C17.6836 8 19.0474 6.21 19.0474 4C19.0474 1.79 17.6836 0 15.9998 0C14.316 0 12.9521 1.79 12.9521 4C12.9521 6.21 14.316 8 15.9998 8Z" fill="#868686"/>
<path fill-rule="evenodd" clip-rule="evenodd" d="M17.2356 15.7886C16.8653 16.2779 16.7621 16.6725 16.7621 17V20H30.4764V17C30.4764 16.6725 30.3731 16.2779 30.0029 15.7886C29.6186 15.2809 29.0204 14.7792 28.2484 14.3364C26.6963 13.4461 24.8089 13 23.6192 13C22.4295 13 20.5421 13.4461 18.9901 14.3364C18.2181 14.7792 17.6198 15.2809 17.2356 15.7886ZM23.6192 11C20.8221 11 15.2383 13.01 15.2383 17V22H32.0002V17C32.0002 13.01 26.4164 11 23.6192 11Z" fill="#868686"/>
<path fill-rule="evenodd" clip-rule="evenodd" d="M16 11C13.4786 11 11.7119 12.5425 11.2054 13.2071L10.1279 11.7929C10.8914 10.7909 13.0357 9 16 9C18.9643 9 21.1087 10.7909 21.8721 11.7929L20.7946 13.2071C20.2882 12.5425 18.5214 11 16 11Z" fill="#868686"/>
</svg>
