<svg width="28" height="26" viewBox="0 0 28 26" fill="none" xmlns="http://www.w3.org/2000/svg">
<path d="M10.6052 9.75033C10.8795 9.0263 11.4208 8.41577 12.1334 8.02689C12.846 7.638 13.6839 7.49584 14.4985 7.6256C15.3132 7.75535 16.0521 8.14864 16.5844 8.73581C17.1167 9.32299 17.4081 10.0661 17.4068 10.8337C17.4068 13.0003 13.9068 14.0837 13.9068 14.0837M14.0002 18.417H14.0118M25.6668 13.0003C25.6668 18.9834 20.4435 23.8337 14.0002 23.8337C7.55684 23.8337 2.3335 18.9834 2.3335 13.0003C2.3335 7.01724 7.55684 2.16699 14.0002 2.16699C20.4435 2.16699 25.6668 7.01724 25.6668 13.0003Z" stroke="#868686" stroke-width="2" stroke-linecap="round" stroke-linejoin="round"/>
</svg>
