<svg width="31" height="31" viewBox="0 0 31 31" fill="none" xmlns="http://www.w3.org/2000/svg">
<g clip-path="url(#clip0_47_2436)">
<path d="M29.5909 11.2727H27.4596C27.3104 10.8512 27.1387 10.4373 26.9451 10.0331L28.4528 8.52538C29.0031 7.97508 29.0031 7.08294 28.4529 6.53264L24.4675 2.54707C24.2032 2.28282 23.8447 2.1343 23.471 2.1343C23.0973 2.1343 22.739 2.28273 22.4747 2.54707L20.9669 4.0548C20.5626 3.86119 20.1489 3.68956 19.7273 3.54039V1.40909C19.7273 0.630897 19.0964 0 18.3182 0H12.6818C11.9036 0 11.2727 0.630897 11.2727 1.40909V3.54039C10.8511 3.68956 10.4373 3.86128 10.0332 4.0548L8.52538 2.54707C7.97517 1.99678 7.08294 1.99678 6.53264 2.54707L2.54707 6.53264C1.99678 7.08294 1.99678 7.97508 2.54707 8.52538L4.0548 10.0332C3.86128 10.4374 3.68966 10.8511 3.54048 11.2727H1.40909C0.630897 11.2727 0 11.9036 0 12.6818V18.3182C0 19.0964 0.630897 19.7273 1.40909 19.7273H3.54048C3.68966 20.1488 3.86138 20.5627 4.0548 20.9668L2.54707 22.4746C2.28282 22.7389 2.1343 23.0973 2.1343 23.4709C2.1343 23.8447 2.28273 24.2031 2.54707 24.4674L6.53273 28.4528C7.08303 29.003 7.97517 29.003 8.52538 28.4528L10.0333 26.9452C10.4376 27.1387 10.8512 27.3104 11.2727 27.4596V29.5909C11.2727 30.3691 11.9036 31 12.6818 31H18.3182C19.0964 31 19.7273 30.3691 19.7273 29.5909V27.4595C20.1489 27.3103 20.5627 27.1387 20.9669 26.9451L22.4748 28.4528C23.025 29.003 23.9172 29.0031 24.4675 28.4527L28.4529 24.4673C29.0032 23.917 29.0032 23.0248 28.4529 22.4745L26.9452 20.9668C27.1388 20.5626 27.3105 20.1488 27.4597 19.7272H29.5909C30.3691 19.7272 31 19.0963 31 18.3181V12.6817C31 11.9036 30.3691 11.2727 29.5909 11.2727ZM28.1818 16.9091H26.4175C25.7744 16.9091 25.2131 17.3444 25.0529 17.9672C24.8241 18.8567 24.4692 19.712 23.9982 20.509C23.6711 21.0626 23.7603 21.7675 24.215 22.2222L25.4639 23.471L23.4711 25.4638L22.2222 24.215C21.7676 23.7605 21.0628 23.6712 20.5093 23.9982C19.7122 24.4691 18.8568 24.824 17.967 25.0531C17.3443 25.2132 16.9091 25.7746 16.9091 26.4176V28.1818H14.0909V26.4176C14.0909 25.7747 13.6557 25.2133 13.0331 25.0531C12.1434 24.824 11.2881 24.4691 10.4909 23.9982C9.93719 23.6711 9.23255 23.7604 8.77798 24.215L7.52905 25.4638L5.53613 23.4709L6.78496 22.2221C7.23972 21.7674 7.32887 21.0626 7.00177 20.509C6.53095 19.7121 6.17614 18.8568 5.94702 17.9669C5.78685 17.3443 5.22538 16.9091 4.58246 16.9091H2.81818V14.0909H4.58246C5.22538 14.0909 5.78676 13.6557 5.94702 13.0331C6.17605 12.1431 6.53095 11.2878 7.00177 10.4909C7.32887 9.93729 7.23972 9.23246 6.78496 8.77779L5.53622 7.52896L7.52905 5.53622L8.77788 6.78496C9.23255 7.23963 9.93747 7.32887 10.491 7.00177C11.2879 6.53085 12.1434 6.17605 13.0332 5.94693C13.6557 5.78676 14.0909 5.22538 14.0909 4.58236V2.81818H16.9091V4.58236C16.9091 5.22528 17.3443 5.78667 17.9669 5.94693C18.8569 6.17605 19.7122 6.53085 20.5092 7.00177C21.0629 7.32878 21.7676 7.23963 22.2223 6.78496L23.4711 5.53622L25.4639 7.52896L24.215 8.77779C23.7603 9.23246 23.6711 9.93738 23.9982 10.491C24.4692 11.2879 24.824 12.1432 25.0529 13.0328C25.2131 13.6555 25.7745 14.0908 26.4175 14.0908H28.1818V16.9091Z" fill="white" stroke="white" stroke-width="0.002"/>
<path d="M17.5096 12.4362L14.2786 15.6671L13.3962 14.7847C12.846 14.2344 11.9537 14.2344 11.4034 14.7847C10.8531 15.335 10.8531 16.2272 11.4034 16.7775L13.2822 18.6563C13.5574 18.9314 13.918 19.0689 14.2786 19.0689C14.6393 19.0689 14.9999 18.9314 15.275 18.6562L19.5022 14.4289C20.0525 13.8786 20.0525 12.9864 19.5022 12.4361C18.952 11.8859 18.0598 11.8859 17.5096 12.4362Z" fill="white" stroke="white" stroke-width="0.002"/>
</g>
<defs>
<clipPath id="clip0_47_2436">
<rect width="31" height="31" fill="white"/>
</clipPath>
</defs>
</svg>
