<svg width="24" height="24" viewBox="0 0 24 24" fill="none" xmlns="http://www.w3.org/2000/svg">
<path d="M9.55 22.7498C5.40164 22.7498 3.32747 22.7498 2.03873 21.461C0.75 20.1724 0.75 19.1981 0.75 15.0498" stroke="#3C3C43" stroke-opacity="0.6" stroke-width="1.5" stroke-linecap="round"/>
<path d="M22.75 15.0498C22.75 19.1981 22.75 20.1724 21.4612 21.461C20.1725 22.7498 18.0983 22.7498 13.95 22.7498" stroke="#3C3C43" stroke-opacity="0.6" stroke-width="1.5" stroke-linecap="round"/>
<path d="M13.95 0.75C18.0983 0.75 20.1725 0.75 21.4612 2.03873C22.75 3.32747 22.75 4.30164 22.75 8.45" stroke="#3C3C43" stroke-opacity="0.6" stroke-width="1.5" stroke-linecap="round"/>
<path d="M9.55 0.75C5.40164 0.75 3.32747 0.75 2.03873 2.03873C0.75 3.32747 0.75 4.30164 0.75 8.45" stroke="#3C3C43" stroke-opacity="0.6" stroke-width="1.5" stroke-linecap="round"/>
<path d="M5.03172 14.0158C4.37728 13.2567 4.05005 12.8771 4.05005 11.75C4.05005 10.6229 4.37727 10.2433 5.03171 9.48423C6.33846 7.96844 8.53 6.25 11.75 6.25C14.9701 6.25 17.1616 7.96844 18.4684 9.48423C19.1228 10.2433 19.45 10.6229 19.45 11.75C19.45 12.8771 19.1228 13.2567 18.4684 14.0158C17.1616 15.5316 14.9701 17.25 11.75 17.25C8.53 17.25 6.33847 15.5316 5.03172 14.0158Z" stroke="#3C3C43" stroke-opacity="0.6" stroke-width="1.5"/>
<path d="M11.75 13.9498C12.9651 13.9498 13.95 12.9648 13.95 11.7498C13.95 10.5348 12.9651 9.5498 11.75 9.5498C10.535 9.5498 9.55005 10.5348 9.55005 11.7498C9.55005 12.9648 10.535 13.9498 11.75 13.9498Z" stroke="#3C3C43" stroke-opacity="0.6" stroke-width="1.5"/>
</svg>
