<svg width="28" height="28" viewBox="0 0 28 28" fill="none" xmlns="http://www.w3.org/2000/svg">
<g clip-path="url(#clip0_94_1368)">
<path d="M13.9998 17.5003C15.9328 17.5003 17.4998 15.9333 17.4998 14.0003C17.4998 12.0673 15.9328 10.5003 13.9998 10.5003C12.0668 10.5003 10.4998 12.0673 10.4998 14.0003C10.4998 15.9333 12.0668 17.5003 13.9998 17.5003Z" stroke="#868686" stroke-width="2" stroke-linecap="round" stroke-linejoin="round"/>
<path d="M22.6332 17.5003C22.4779 17.8522 22.4315 18.2426 22.5002 18.621C22.5688 18.9995 22.7492 19.3487 23.0182 19.6237L23.0882 19.6937C23.3051 19.9104 23.4772 20.1677 23.5946 20.451C23.7121 20.7342 23.7725 21.0379 23.7725 21.3445C23.7725 21.6511 23.7121 21.9548 23.5946 22.238C23.4772 22.5213 23.3051 22.7786 23.0882 22.9953C22.8715 23.2123 22.6141 23.3844 22.3309 23.5018C22.0476 23.6192 21.744 23.6797 21.4373 23.6797C21.1307 23.6797 20.8271 23.6192 20.5438 23.5018C20.2605 23.3844 20.0032 23.2123 19.7865 22.9953L19.7165 22.9253C19.4415 22.6564 19.0923 22.4759 18.7139 22.4073C18.3354 22.3387 17.9451 22.385 17.5932 22.5403C17.2481 22.6882 16.9538 22.9338 16.7465 23.2468C16.5392 23.5598 16.428 23.9266 16.4265 24.302V24.5003C16.4265 25.1192 16.1807 25.7127 15.7431 26.1502C15.3055 26.5878 14.712 26.8337 14.0932 26.8337C13.4743 26.8337 12.8808 26.5878 12.4433 26.1502C12.0057 25.7127 11.7598 25.1192 11.7598 24.5003V24.3953C11.7508 24.0092 11.6258 23.6347 11.4011 23.3205C11.1764 23.0063 10.8624 22.767 10.4998 22.6337C10.148 22.4784 9.75761 22.432 9.37915 22.5007C9.00069 22.5693 8.65146 22.7497 8.3765 23.0187L8.3065 23.0887C8.0898 23.3056 7.83246 23.4777 7.5492 23.5951C7.26594 23.7126 6.96231 23.773 6.65567 23.773C6.34903 23.773 6.04541 23.7126 5.76214 23.5951C5.47888 23.4777 5.22154 23.3056 5.00484 23.0887C4.78789 22.872 4.61579 22.6146 4.49836 22.3314C4.38094 22.0481 4.3205 21.7445 4.3205 21.4378C4.3205 21.1312 4.38094 20.8276 4.49836 20.5443C4.61579 20.261 4.78789 20.0037 5.00484 19.787L5.07484 19.717C5.3438 19.442 5.52422 19.0928 5.59284 18.7143C5.66146 18.3359 5.61514 17.9455 5.45984 17.5937C5.31195 17.2486 5.06639 16.9543 4.75338 16.747C4.44038 16.5397 4.07359 16.4285 3.69817 16.427H3.49984C2.881 16.427 2.28751 16.1812 1.84992 15.7436C1.41234 15.306 1.1665 14.7125 1.1665 14.0937C1.1665 13.4748 1.41234 12.8813 1.84992 12.4437C2.28751 12.0062 2.881 11.7603 3.49984 11.7603H3.60484C3.991 11.7513 4.36551 11.6263 4.67969 11.4016C4.99386 11.1769 5.23317 10.8629 5.3665 10.5003C5.52181 10.1484 5.56813 9.7581 5.49951 9.37964C5.43089 9.00118 5.25046 8.65195 4.9815 8.37699L4.9115 8.30699C4.69456 8.09029 4.52245 7.83295 4.40503 7.54969C4.28761 7.26642 4.22717 6.9628 4.22717 6.65616C4.22717 6.34952 4.28761 6.04589 4.40503 5.76263C4.52245 5.47937 4.69456 5.22203 4.9115 5.00533C5.12821 4.78838 5.38555 4.61628 5.66881 4.49885C5.95207 4.38143 6.2557 4.32099 6.56234 4.32099C6.86897 4.32099 7.1726 4.38143 7.45587 4.49885C7.73913 4.61628 7.99647 4.78838 8.21317 5.00533L8.28317 5.07533C8.55813 5.34429 8.90736 5.52471 9.28582 5.59333C9.66428 5.66195 10.0546 5.61563 10.4065 5.46033H10.4998C10.8449 5.31244 11.1392 5.06687 11.3465 4.75387C11.5538 4.44086 11.665 4.07408 11.6665 3.69866V3.50033C11.6665 2.88149 11.9123 2.28799 12.3499 1.85041C12.7875 1.41282 13.381 1.16699 13.9998 1.16699C14.6187 1.16699 15.2122 1.41282 15.6498 1.85041C16.0873 2.28799 16.3332 2.88149 16.3332 3.50033V3.60533C16.3347 3.98074 16.4459 4.34753 16.6532 4.66054C16.8605 4.97354 17.1548 5.2191 17.4998 5.36699C17.8517 5.52229 18.2421 5.56862 18.6205 5.5C18.999 5.43138 19.3482 5.25095 19.6232 4.98199L19.6932 4.91199C19.9099 4.69505 20.1672 4.52294 20.4505 4.40552C20.7337 4.2881 21.0374 4.22766 21.344 4.22766C21.6506 4.22766 21.9543 4.2881 22.2375 4.40552C22.5208 4.52294 22.7781 4.69505 22.9948 4.91199C23.2118 5.1287 23.3839 5.38604 23.5013 5.6693C23.6187 5.95256 23.6792 6.25619 23.6792 6.56283C23.6792 6.86946 23.6187 7.17309 23.5013 7.45635C23.3839 7.73962 23.2118 7.99696 22.9948 8.21366L22.9248 8.28366C22.6559 8.55862 22.4755 8.90784 22.4068 9.28631C22.3382 9.66477 22.3845 10.0551 22.5398 10.407V10.5003C22.6877 10.8454 22.9333 11.1397 23.2463 11.347C23.5593 11.5543 23.9261 11.6655 24.3015 11.667H24.4998C25.1187 11.667 25.7122 11.9128 26.1498 12.3504C26.5873 12.788 26.8332 13.3815 26.8332 14.0003C26.8332 14.6192 26.5873 15.2127 26.1498 15.6502C25.7122 16.0878 25.1187 16.3337 24.4998 16.3337H24.3948C24.0194 16.3352 23.6526 16.4464 23.3396 16.6537C23.0266 16.861 22.7811 17.1553 22.6332 17.5003Z" stroke="#868686" stroke-width="2" stroke-linecap="round" stroke-linejoin="round"/>
</g>
<defs>
<clipPath id="clip0_94_1368">
<rect width="28" height="28" fill="white"/>
</clipPath>
</defs>
</svg>
