<svg width="14" height="14" viewBox="0 0 14 14" fill="none" xmlns="http://www.w3.org/2000/svg">
<path d="M9.91675 13.2702H4.08341C1.51091 13.2702 0.729248 12.4885 0.729248 9.91602V4.08268C0.729248 1.51018 1.51091 0.728516 4.08341 0.728516H4.95841C5.97925 0.728516 6.30008 1.06102 6.70841 1.60352L7.58341 2.77018C7.77591 3.02685 7.80508 3.06185 8.16675 3.06185H9.91675C12.4892 3.06185 13.2709 3.84352 13.2709 6.41602V9.91602C13.2709 12.4885 12.4892 13.2702 9.91675 13.2702ZM4.08341 1.60352C1.99508 1.60352 1.60425 2.00018 1.60425 4.08268V9.91602C1.60425 11.9985 1.99508 12.3952 4.08341 12.3952H9.91675C12.0051 12.3952 12.3959 11.9985 12.3959 9.91602V6.41602C12.3959 4.33352 12.0051 3.93685 9.91675 3.93685H8.16675C7.42008 3.93685 7.17508 3.68018 6.88341 3.29518L6.00841 2.12852C5.70508 1.72602 5.61175 1.60352 4.95841 1.60352H4.08341Z" fill="#133250"/>
<path d="M11.6667 4.15852C11.4276 4.15852 11.2292 3.96018 11.2292 3.72102V2.91602C11.2292 1.99435 10.8384 1.60352 9.91675 1.60352H4.66675C4.42758 1.60352 4.22925 1.40518 4.22925 1.16602C4.22925 0.926849 4.42758 0.728516 4.66675 0.728516H9.91675C11.3284 0.728516 12.1042 1.50435 12.1042 2.91602V3.72102C12.1042 3.96018 11.9059 4.15852 11.6667 4.15852Z" fill="#133250"/>
</svg>
