<svg width="15" height="15" viewBox="0 0 15 15" fill="none" xmlns="http://www.w3.org/2000/svg">
<g clip-path="url(#clip0_9_8863)">
<path d="M13.75 7.5C13.75 10.9518 10.9518 13.75 7.5 13.75M13.75 7.5C13.75 4.04822 10.9518 1.25 7.5 1.25M13.75 7.5H1.25M7.5 13.75C4.04822 13.75 1.25 10.9518 1.25 7.5M7.5 13.75C9.0633 12.0385 9.95172 9.81748 10 7.5C9.95172 5.18252 9.0633 2.96147 7.5 1.25M7.5 13.75C5.9367 12.0385 5.04828 9.81748 5 7.5C5.04828 5.18252 5.9367 2.96147 7.5 1.25M1.25 7.5C1.25 4.04822 4.04822 1.25 7.5 1.25" stroke="#133250" stroke-linecap="round" stroke-linejoin="round"/>
</g>
<defs>
<clipPath id="clip0_9_8863">
<rect width="15" height="15" fill="white"/>
</clipPath>
</defs>
</svg>
